<svg width="32" height="31" viewBox="0 0 32 31" fill="none" xmlns="http://www.w3.org/2000/svg">
<path opacity="0.5" d="M31.9922 0.204987L24.1628 27.941C24.123 28.0669 23.9638 28.1047 23.8709 28.0165L18.6292 23.0435L22.5571 9.14397C22.5969 9.01807 22.4775 8.90476 22.3448 8.94253L7.69452 12.6692L2.47934 7.72128C2.38645 7.63315 2.42626 7.48207 2.55896 7.4443L31.7799 0.00354553C31.9126 -0.0216347 32.032 0.0916763 31.9922 0.204987Z" fill="#00B37E"/>
<path opacity="0.5" d="M18.6289 23.0432L16.6118 30.2196C16.572 30.3455 16.4128 30.3833 16.3199 30.2951L0.0506254 14.8722C-0.0422659 14.7841 -0.00245554 14.633 0.130246 14.5952L7.69425 12.669L18.6289 23.0432Z" fill="#00B37E"/>
<path d="M22.5565 9.14373L18.6285 23.0432L7.69386 12.669L22.3441 8.94228C22.4768 8.90451 22.5963 9.01783 22.5565 9.14373Z" fill="#00B37E"/>
</svg>
